<?xml version="1.0" standalone="no"?>
<!DOCTYPE svg PUBLIC "-//W3C//DTD SVG 20010904//EN"
 "http://www.w3.org/TR/2001/REC-SVG-20010904/DTD/svg10.dtd">
<svg version="1.0" xmlns="http://www.w3.org/2000/svg"
 width="378.000000pt" height="378.000000pt" viewBox="0 0 378.000000 378.000000"
 preserveAspectRatio="xMidYMid meet">
<metadata>
Created by potrace 1.14, written by Peter Selinger 2001-2017
</metadata>
<g transform="translate(0.000000,378.000000) scale(0.100000,-0.100000)"
fill="#000000" stroke="none">
<path d="M926 1938 c-504 -875 -915 -1593 -913 -1595 2 -2 829 -2 1838 -1
l1835 3 -406 705 c-224 388 -405 709 -402 713 2 5 -3 14 -11 20 -9 7 -218 363
-465 792 -552 960 -544 945 -552 950 -4 3 -420 -711 -924 -1587z m1032 1242
c55 -96 104 -184 108 -195 5 -11 12 -24 17 -30 5 -5 125 -210 266 -455 l257
-445 -133 -3 -133 -3 0 -359 0 -360 -245 0 -245 0 0 55 0 55 -165 0 -165 0 0
40 0 40 165 0 165 0 0 60 0 60 -166 0 -165 0 3 43 3 42 163 3 162 2 0 55 0 55
-166 0 -165 0 3 43 3 42 163 3 162 2 0 55 0 55 -166 0 -165 0 3 43 3 42 163 3
162 2 0 80 0 80 -245 0 -245 0 0 -935 0 -935 -70 0 -70 0 0 50 0 50 -506 0
c-278 0 -504 3 -502 8 2 4 12 24 23 45 l19 37 483 0 483 0 0 55 0 55 -445 0
c-272 0 -445 4 -445 9 0 6 9 26 21 45 l21 36 424 0 424 0 0 100 0 100 -115 0
-115 0 0 200 0 200 -131 0 c-109 0 -130 2 -127 15 6 27 1113 1944 1119 1937 3
-4 51 -86 107 -182z m801 -1396 c12 -19 21 -39 21 -45 0 -5 -44 -9 -100 -9
l-100 0 0 45 0 45 79 0 79 0 21 -36z m119 -204 c12 -21 22 -41 22 -44 0 -4
-72 -6 -160 -6 l-160 0 0 45 0 45 138 0 137 0 23 -40z m111 -196 c12 -19 21
-39 21 -45 0 -5 -87 -9 -215 -9 l-215 0 0 45 0 45 194 0 194 0 21 -36z m119
-204 c12 -21 22 -41 22 -44 0 -4 -124 -6 -275 -6 l-275 0 0 45 0 45 253 0 252
0 23 -40z m-2328 -10 l0 -40 -110 0 -110 0 20 40 20 40 90 0 90 0 0 -40z
m1560 -105 l0 -45 -377 2 -378 3 -3 43 -3 42 380 0 381 0 0 -45z m879 -79 c12
-18 21 -38 21 -45 0 -8 -91 -11 -330 -11 l-330 0 0 45 0 45 309 0 309 0 21
-34z m-879 -121 l0 -45 -377 2 -378 3 -3 43 -3 42 380 0 381 0 0 -45z m1000
-85 c11 -21 20 -42 20 -45 0 -3 -175 -5 -390 -5 l-390 0 0 45 0 45 370 0 370
0 20 -40z m-1000 -115 l0 -45 -377 2 -378 3 -3 43 -3 42 380 0 381 0 0 -45z"/>
<path d="M1660 2970 c0 -5 5 -10 10 -10 6 0 10 5 10 10 0 6 -4 10 -10 10 -5 0
-10 -4 -10 -10z"/>
<path d="M1260 2170 c0 -5 5 -10 10 -10 6 0 10 5 10 10 0 6 -4 10 -10 10 -5 0
-10 -4 -10 -10z"/>
<path d="M460 570 c0 -5 5 -10 10 -10 6 0 10 5 10 10 0 6 -4 10 -10 10 -5 0
-10 -4 -10 -10z"/>
<path d="M860 570 c0 -5 5 -10 10 -10 6 0 10 5 10 10 0 6 -4 10 -10 10 -5 0
-10 -4 -10 -10z"/>
<path d="M1260 570 c0 -5 5 -10 10 -10 6 0 10 5 10 10 0 6 -4 10 -10 10 -5 0
-10 -4 -10 -10z"/>
<path d="M2860 1370 c0 -5 5 -10 10 -10 6 0 10 5 10 10 0 6 -4 10 -10 10 -5 0
-10 -4 -10 -10z"/>
<path d="M2860 970 c0 -5 5 -10 10 -10 6 0 10 5 10 10 0 6 -4 10 -10 10 -5 0
-10 -4 -10 -10z"/>
</g>
</svg>
